# xmcd CD database file
#
# Track frame offsets:
#	150
#	28293
#	53018
#	79058
#	100240
#	128100
#	142865
#	167918
#	195223
#	212678
#
# Disc length: 3163 seconds
#
# Revision: 2
# Processed by: cddbd v1.4b41PL2 Copyright (c) Steve Scherf et al.
# Submitted via: CDex 1.40Beta4
#
DISCID=800c590a
DTITLE=Various Artists II - Pacific Moon
DYEAR=1900
DGENRE=Blues
TTITLE0=Wintry Wind
TTITLE1=Niigata-Okesa
TTITLE2=Tsugaru
TTITLE3=Can't Let You Go
TTITLE4=Sun Stone
TTITLE5=Fudosan
TTITLE6=Sayonara
TTITLE7=Himalayan Palmist
TTITLE8=Mendicant Priest
TTITLE9=Darma
EXTD=ID3G:   0
EXTT0=
EXTT1=
EXTT2=
EXTT3=
EXTT4=
EXTT5=
EXTT6=
EXTT7=
EXTT8=
EXTT9=
PLAYORDER=
